<?xml version="1.0" encoding="UTF-8" standalone="no"?>
<!DOCTYPE svg PUBLIC "-//W3C//DTD SVG 1.1//EN" "http://www.w3.org/Graphics/SVG/1.1/DTD/svg11.dtd">
<svg width="100%" height="100%" viewBox="0 0 64 64" version="1.1" xmlns="http://www.w3.org/2000/svg" xmlns:xlink="http://www.w3.org/1999/xlink" xml:space="preserve" xmlns:serif="http://www.serif.com/" style="fill-rule:evenodd;clip-rule:evenodd;stroke-linejoin:round;stroke-miterlimit:2;">
    <g transform="matrix(2.96198,0,0,2.41176,-63.3916,-50.9226)">
        <path d="M43.009,25.36C43.009,23.017 41.46,21.114 39.552,21.114L24.859,21.114C22.951,21.114 21.402,23.017 21.402,25.36L21.402,43.405C21.402,45.748 22.951,47.651 24.859,47.651L39.552,47.651C41.46,47.651 43.009,45.748 43.009,43.405L43.009,25.36Z" style="fill:rgb(255,120,31);"/>
    </g>
    <g transform="matrix(0.0447822,0,0,-0.0447822,-1.58665,65.382)">
        <path d="M754,1403C787,1310 782,1170 743,1058C708,958 642,847 557,746C464,635 430,552 430,434C430,309 482,197 590,90C657,25 686,10 646,63C632,81 608,123 593,155C569,206 565,228 565,300C565,373 569,393 593,443C624,505 702,590 751,616C776,628 800,630 878,625C968,618 977,620 1003,640C1032,663 1038,697 1019,732C1010,749 1011,760 1026,788C1040,815 1042,825 1032,840C1024,853 1024,861 1031,866C1057,882 1058,915 1034,941L1010,967L1040,998C1056,1016 1070,1036 1070,1044C1070,1052 1050,1073 1025,1090C968,1129 935,1172 905,1249C892,1283 872,1326 861,1344C839,1380 756,1460 742,1460C737,1460 742,1434 754,1403Z" style="fill:white;fill-rule:nonzero;"/>
    </g>
</svg>
