<?xml version="1.0" standalone="no"?>
<!DOCTYPE svg PUBLIC "-//W3C//DTD SVG 20010904//EN"
 "http://www.w3.org/TR/2001/REC-SVG-20010904/DTD/svg10.dtd">
<svg version="1.0" xmlns="http://www.w3.org/2000/svg"
 width="884.000000pt" height="884.000000pt" viewBox="0 0 884.000000 884.000000"
 preserveAspectRatio="xMidYMid meet">
<metadata>
Created by potrace 1.14, written by Peter Selinger 2001-2017
</metadata>
<g transform="translate(0.000000,884.000000) scale(0.100000,-0.100000)"
fill="#000000" stroke="none">
<path d="M4380 7833 c-19 -9 -37 -17 -40 -17 -10 -2 -385 -191 -390 -196 -3
-4 -24 -16 -47 -27 -62 -32 -86 -46 -105 -62 -10 -8 -18 -10 -18 -5 0 5 -4 4
-8 -1 -9 -13 -130 -85 -143 -85 -5 0 -9 -3 -9 -7 0 -5 -21 -20 -48 -36 -69
-40 -83 -49 -119 -74 -17 -13 -36 -23 -42 -23 -6 0 -11 -4 -11 -10 0 -5 -7
-10 -15 -10 -8 0 -15 -4 -15 -8 0 -5 -10 -13 -22 -19 -43 -20 -372 -259 -505
-368 -7 -5 -24 -19 -38 -30 -30 -23 -45 -36 -106 -87 -323 -269 -668 -614
-924 -922 -22 -26 -45 -53 -50 -59 -19 -22 -140 -173 -160 -201 -11 -16 -26
-34 -32 -41 -7 -8 -13 -18 -13 -24 0 -6 -3 -11 -7 -11 -5 0 -19 -17 -33 -38
-14 -20 -27 -39 -30 -42 -6 -5 -126 -177 -175 -250 -16 -25 -35 -51 -42 -57
-6 -7 -17 -26 -25 -43 -7 -16 -16 -30 -20 -30 -5 0 -8 -6 -8 -14 0 -8 -4 -16
-8 -18 -7 -2 -120 -184 -158 -253 -6 -11 -46 -83 -89 -160 -68 -123 -275 -535
-275 -549 0 -3 -11 -29 -24 -58 -14 -30 -34 -78 -46 -108 -12 -30 -27 -66 -33
-80 -6 -14 -11 -27 -12 -30 -2 -6 -11 -30 -40 -105 -42 -108 -71 -191 -74
-208 0 -4 -7 -20 -15 -35 -7 -15 -17 -43 -21 -62 -4 -19 -12 -46 -18 -60 -6
-14 -11 -27 -12 -30 -10 -32 -25 -87 -26 -95 -1 -5 -7 -26 -15 -45 -11 -30
-32 -102 -40 -135 -1 -5 -9 -36 -18 -67 -10 -31 -19 -70 -22 -85 -3 -15 -8
-37 -11 -48 -4 -11 -8 -24 -9 -30 -1 -5 -12 -50 -23 -100 -12 -49 -24 -101
-26 -115 -2 -14 -8 -45 -14 -70 -5 -25 -13 -61 -16 -80 -3 -19 -8 -42 -10 -50
-2 -8 -7 -35 -11 -60 -3 -25 -8 -54 -10 -65 -2 -11 -6 -38 -9 -60 -3 -22 -8
-51 -11 -65 -3 -14 -7 -39 -9 -56 -2 -18 -8 -67 -14 -110 -6 -44 -13 -104 -16
-134 -3 -30 -7 -71 -9 -90 -15 -130 -24 -288 -32 -527 l-6 -203 1611 0 1611 0
1 93 c0 50 2 126 4 167 3 68 6 99 21 240 11 95 12 105 14 105 2 0 9 48 11 88
1 15 6 30 11 33 4 3 6 9 3 14 -3 4 2 41 11 82 9 40 18 87 21 103 3 17 14 64
24 105 11 41 22 83 24 93 19 84 100 327 157 472 41 105 49 125 92 217 15 32
27 60 26 64 -1 4 2 10 7 13 5 3 28 44 51 91 93 186 212 381 346 565 28 39 55
75 61 82 13 16 22 28 65 83 19 25 37 47 40 50 3 3 18 21 34 40 111 137 206
225 206 191 0 -5 20 -29 44 -55 25 -25 62 -68 82 -94 21 -26 43 -51 49 -57 22
-21 184 -244 251 -346 92 -140 132 -206 184 -301 50 -91 184 -367 215 -443 20
-49 42 -103 50 -120 11 -25 25 -64 30 -85 1 -3 5 -12 8 -20 8 -19 78 -229 83
-250 2 -8 19 -72 38 -142 19 -71 32 -128 30 -128 -3 0 0 -8 5 -19 6 -10 12
-34 14 -52 2 -19 6 -39 9 -45 4 -6 9 -30 12 -55 3 -24 8 -55 11 -69 5 -25 10
-57 21 -135 3 -22 8 -53 10 -70 10 -57 24 -253 28 -390 l4 -110 1607 -3 1606
-2 -6 207 c-7 220 -9 267 -20 403 -9 104 -11 130 -19 200 -4 30 -9 75 -11 100
-9 72 -24 180 -40 283 -3 17 -8 50 -11 72 -2 22 -7 47 -10 55 -3 8 -8 26 -10
40 -2 14 -7 41 -10 60 -4 19 -8 44 -10 55 -1 11 -10 52 -19 90 -9 39 -18 81
-21 95 -3 14 -7 33 -10 42 -3 9 -7 26 -9 37 -3 12 -7 31 -11 44 -3 12 -7 32
-10 45 -2 12 -16 64 -30 115 -14 50 -27 99 -29 107 -2 8 -14 47 -25 85 -12 39
-25 84 -30 100 -8 32 -67 209 -77 235 -4 8 -7 18 -8 23 -2 4 -4 9 -5 12 -1 3
-3 8 -5 13 -1 4 -5 14 -8 22 -4 8 -18 49 -33 90 -14 41 -32 89 -39 105 -32 71
-67 162 -72 183 -3 12 -9 22 -14 22 -5 0 -9 11 -9 25 0 14 -4 25 -10 25 -5 0
-10 6 -10 13 0 7 -8 31 -19 53 -10 21 -29 62 -41 89 -65 145 -219 444 -306
592 -30 51 -54 97 -54 102 0 6 -4 11 -10 11 -5 0 -10 7 -10 15 0 8 -4 15 -10
15 -5 0 -10 5 -10 11 0 6 -20 42 -45 80 -25 38 -45 72 -45 75 0 3 -5 10 -10
17 -6 7 -49 71 -97 142 -47 72 -94 139 -104 151 -11 11 -19 26 -19 32 0 7 -4
12 -8 12 -4 0 -21 21 -38 47 -16 25 -34 51 -39 57 -6 6 -40 49 -75 96 -36 47
-73 94 -83 105 -10 11 -37 45 -60 75 -23 30 -49 61 -57 70 -8 9 -37 42 -65 74
-188 220 -463 500 -689 701 -31 28 -69 61 -84 75 -15 14 -47 41 -71 60 -23 19
-55 45 -69 58 -15 13 -43 35 -62 50 -19 14 -42 33 -51 42 -32 30 -59 50 -68
50 -5 0 -11 3 -13 8 -1 4 -43 37 -93 74 -49 37 -99 74 -110 83 -57 43 -106 75
-115 75 -5 0 -10 5 -10 10 0 6 -6 10 -14 10 -8 0 -16 4 -18 8 -3 8 -95 72
-104 72 -3 0 -14 8 -25 18 -10 11 -32 25 -47 33 -15 8 -52 30 -82 50 -68 45
-273 164 -360 209 -36 19 -67 37 -70 40 -7 9 -391 197 -415 203 -11 3 -36 -1
-55 -10z"/>
</g>
</svg>
